<?xml version="1.0" encoding="UTF-8"?>
<!DOCTYPE svg PUBLIC "-//W3C//DTD SVG 1.1//EN" "http://www.w3.org/Graphics/SVG/1.1/DTD/svg11.dtd">
<svg xmlns="http://www.w3.org/2000/svg" version="1.1" width="411px" height="122px" style="shape-rendering:geometricPrecision; text-rendering:geometricPrecision; image-rendering:optimizeQuality; fill-rule:evenodd; clip-rule:evenodd" xmlns:xlink="http://www.w3.org/1999/xlink">
<g><path style="opacity:1" fill="#fdfdfd" d="M -0.5,-0.5 C 136.5,-0.5 273.5,-0.5 410.5,-0.5C 410.5,40.1667 410.5,80.8333 410.5,121.5C 273.5,121.5 136.5,121.5 -0.5,121.5C -0.5,80.8333 -0.5,40.1667 -0.5,-0.5 Z"/></g>
<g><path style="opacity:1" fill="#323030" d="M 102.5,23.5 C 108.167,23.5 113.833,23.5 119.5,23.5C 119.5,26.1667 119.5,28.8333 119.5,31.5C 115.774,31.1774 112.107,31.5108 108.5,32.5C 112.927,33.642 117.094,35.3087 121,37.5C 121.667,41.1667 121.667,44.8333 121,48.5C 119.681,50.4875 117.848,51.6541 115.5,52C 109.843,52.4994 104.176,52.6661 98.5,52.5C 98.2317,49.8806 98.565,47.3806 99.5,45C 103.871,44.8275 108.204,44.3275 112.5,43.5C 101.533,43.3804 97.0334,38.0471 99,27.5C 100.376,26.2949 101.542,24.9616 102.5,23.5 Z"/></g>
<g><path style="opacity:1" fill="#322e30" d="M 127.5,23.5 C 135.5,23.5 143.5,23.5 151.5,23.5C 151.5,26.1667 151.5,28.8333 151.5,31.5C 149.167,31.5 146.833,31.5 144.5,31.5C 144.5,38.5 144.5,45.5 144.5,52.5C 141.167,52.5 137.833,52.5 134.5,52.5C 134.5,45.5 134.5,38.5 134.5,31.5C 132.167,31.5 129.833,31.5 127.5,31.5C 127.5,28.8333 127.5,26.1667 127.5,23.5 Z"/></g>
<g><path style="opacity:1" fill="#373232" d="M 158.5,23.5 C 161.833,23.5 165.167,23.5 168.5,23.5C 168.5,30.5 168.5,37.5 168.5,44.5C 170.5,44.5 172.5,44.5 174.5,44.5C 174.5,37.5 174.5,30.5 174.5,23.5C 177.5,23.5 180.5,23.5 183.5,23.5C 183.666,32.1731 183.5,40.8397 183,49.5C 176.927,53.6193 170.427,54.4527 163.5,52C 161.448,51.0701 159.948,49.5701 159,47.5C 158.5,39.5069 158.334,31.5069 158.5,23.5 Z"/></g>
<g><path style="opacity:1" fill="#2e2d2e" d="M 196.5,23.5 C 202.167,23.5 207.833,23.5 213.5,23.5C 213.768,26.1194 213.435,28.6194 212.5,31C 208.789,31.1747 205.122,31.6747 201.5,32.5C 205.811,33.8021 209.977,35.4688 214,37.5C 214.667,41.1667 214.667,44.8333 214,48.5C 212.786,50.0488 211.286,51.2155 209.5,52C 203.843,52.4994 198.176,52.6661 192.5,52.5C 192.5,49.8333 192.5,47.1667 192.5,44.5C 196.884,44.8256 201.217,44.4922 205.5,43.5C 201.073,42.358 196.906,40.6913 193,38.5C 192.333,34.5 192.333,30.5 193,26.5C 194.145,25.3636 195.312,24.3636 196.5,23.5 Z"/></g>
<g><path style="opacity:1" fill="#332d2a" d="M 238.5,42.5 C 236.393,41.5318 234.059,41.1984 231.5,41.5C 231.5,44.8333 231.5,48.1667 231.5,51.5C 228.713,52.4767 225.713,52.81 222.5,52.5C 222.5,42.8333 222.5,33.1667 222.5,23.5C 225.5,23.5 228.5,23.5 231.5,23.5C 231.5,26.8333 231.5,30.1667 231.5,33.5C 233.833,33.5 236.167,33.5 238.5,33.5C 238.5,30.1667 238.5,26.8333 238.5,23.5C 241.5,23.5 244.5,23.5 247.5,23.5C 247.5,33.1667 247.5,42.8333 247.5,52.5C 244.5,52.5 241.5,52.5 238.5,52.5C 238.5,49.1667 238.5,45.8333 238.5,42.5 Z"/></g>
<g><path style="opacity:1" fill="#2f2b2b" d="M 261.5,23.5 C 266.511,23.3341 271.511,23.5007 276.5,24C 278.286,24.7845 279.786,25.9512 281,27.5C 281.667,34.5 281.667,41.5 281,48.5C 280.167,49.3333 279.333,50.1667 278.5,51C 272.947,52.5699 267.281,52.9032 261.5,52C 259.714,51.2155 258.214,50.0488 257,48.5C 256.333,41.5 256.333,34.5 257,27.5C 258.397,25.9297 259.897,24.5964 261.5,23.5 Z"/></g>
<g><path style="opacity:1" fill="#2d2b2d" d="M 290.5,23.5 C 296.509,23.3338 302.509,23.5005 308.5,24C 310.286,24.7845 311.786,25.9512 313,27.5C 316.748,39.9075 312.248,45.5742 299.5,44.5C 299.5,47.1667 299.5,49.8333 299.5,52.5C 296.5,52.5 293.5,52.5 290.5,52.5C 290.5,42.8333 290.5,33.1667 290.5,23.5 Z"/></g>
<g><path style="opacity:1" fill="#eaedee" d="M 265.5,31.5 C 267.833,31.5 270.167,31.5 272.5,31.5C 272.666,35.8461 272.499,40.1794 272,44.5C 270,45.8333 268,45.8333 266,44.5C 265.501,40.1794 265.334,35.8461 265.5,31.5 Z"/></g>
<g><path style="opacity:1" fill="#ecf0f0" d="M 299.5,31.5 C 301.167,31.5 302.833,31.5 304.5,31.5C 304.5,33.5 304.5,35.5 304.5,37.5C 302.833,37.5 301.167,37.5 299.5,37.5C 299.5,35.5 299.5,33.5 299.5,31.5 Z"/></g>
<g><path style="opacity:1" fill="#333333" d="M 62.5,38.5 C 63.4959,38.4142 64.3292,38.7476 65,39.5C 65.5,60.4974 65.6666,81.4974 65.5,102.5C 64.1667,102.5 62.8333,102.5 61.5,102.5C 61.1785,81.0912 61.5118,59.7579 62.5,38.5 Z"/></g>
<g><path style="opacity:1" fill="#6389b5" d="M 238.5,42.5 C 236.5,42.5 234.5,42.5 232.5,42.5C 232.81,45.7131 232.477,48.7131 231.5,51.5C 231.5,48.1667 231.5,44.8333 231.5,41.5C 234.059,41.1984 236.393,41.5318 238.5,42.5 Z"/></g>
<g><path style="opacity:1" fill="#2e2e2e" d="M 46.5,46.5 C 47.4959,46.4142 48.3292,46.7476 49,47.5C 49.4999,63.1631 49.6666,78.8298 49.5,94.5C 48.1667,94.5 46.8333,94.5 45.5,94.5C 45.1825,78.4225 45.5159,62.4225 46.5,46.5 Z"/></g>
<g><path style="opacity:1" fill="#353535" d="M 70.5,46.5 C 71.4959,46.4142 72.3292,46.7476 73,47.5C 73.4999,63.1631 73.6666,78.8298 73.5,94.5C 72.1667,94.5 70.8333,94.5 69.5,94.5C 69.1825,78.4225 69.5159,62.4225 70.5,46.5 Z"/></g>
<g><path style="opacity:1" fill="#313131" d="M 54.5,54.5 C 55.4959,54.4142 56.3292,54.7476 57,55.5C 57.6667,65.5 57.6667,75.5 57,85.5C 55.9887,86.3366 54.8221,86.67 53.5,86.5C 53.1909,75.7517 53.5242,65.085 54.5,54.5 Z"/></g>
<g><path style="opacity:1" fill="#2f2f2f" d="M 77.5,54.5 C 78.4959,54.4142 79.3292,54.7476 80,55.5C 80.4998,65.828 80.6665,76.1613 80.5,86.5C 79.1779,86.67 78.0113,86.3366 77,85.5C 76.1925,75.0899 76.3592,64.7565 77.5,54.5 Z"/></g>
<g><path style="opacity:1" fill="#2e2e2e" d="M 38.5,62.5 C 39.4959,62.4142 40.3292,62.7476 41,63.5C 41.6667,68.1667 41.6667,72.8333 41,77.5C 40,78.8333 39,78.8333 38,77.5C 37.2223,72.4158 37.3889,67.4158 38.5,62.5 Z"/></g>
<g><path style="opacity:1" fill="#5f5f5f" d="M 391.5,69.5 C 289.43,69.1691 187.43,69.5024 85.5,70.5C 136.162,69.1667 187.162,68.5001 238.5,68.5C 289.668,68.5 340.668,68.8333 391.5,69.5 Z"/></g>
<g><path style="opacity:1" fill="#898989" d="M 30.5,69.5 C 28.5,69.5 26.5,69.5 24.5,69.5C 24.5,70.5 24.5,71.5 24.5,72.5C 23.5655,71.4324 23.2322,70.099 23.5,68.5C 26.0593,68.1984 28.3926,68.5318 30.5,69.5 Z"/></g>
<g><path style="opacity:1" fill="#2d2d2d" d="M 30.5,69.5 C 31.404,70.209 31.7373,71.209 31.5,72.5C 29.1667,72.5 26.8333,72.5 24.5,72.5C 24.5,71.5 24.5,70.5 24.5,69.5C 26.5,69.5 28.5,69.5 30.5,69.5 Z"/></g>
<g><path style="opacity:1" fill="#292929" d="M 391.5,69.5 C 392.404,70.209 392.737,71.209 392.5,72.5C 289.828,73.1645 187.495,72.4978 85.5,70.5C 187.43,69.5024 289.43,69.1691 391.5,69.5 Z"/></g>
</svg>
