<?xml version="1.0" encoding="UTF-8"?>
<!DOCTYPE svg PUBLIC "-//W3C//DTD SVG 1.1//EN" "http://www.w3.org/Graphics/SVG/1.1/DTD/svg11.dtd">
<svg xmlns="http://www.w3.org/2000/svg" version="1.1" width="303px" height="120px" style="shape-rendering:geometricPrecision; text-rendering:geometricPrecision; image-rendering:optimizeQuality; fill-rule:evenodd; clip-rule:evenodd" xmlns:xlink="http://www.w3.org/1999/xlink">
<g><path style="opacity:1" fill="#c55601" d="M -0.5,-0.5 C 100.5,-0.5 201.5,-0.5 302.5,-0.5C 302.5,39.5 302.5,79.5 302.5,119.5C 201.5,119.5 100.5,119.5 -0.5,119.5C -0.5,79.5 -0.5,39.5 -0.5,-0.5 Z"/></g>
<g><path style="opacity:1" fill="#f7d32c" d="M 83.5,78.5 C 83.5,81.5 83.5,84.5 83.5,87.5C 65.5,87.5 47.5,87.5 29.5,87.5C 30.5961,72.4891 30.7628,57.4891 30,42.5C 33.2534,40.4569 36.4201,38.2902 39.5,36C 51.1667,35.3333 62.8333,35.3333 74.5,36C 77.3603,38.3603 80.3603,40.527 83.5,42.5C 83.5685,54.37 83.5685,66.37 83.5,78.5 Z"/></g>
<g><path style="opacity:1" fill="#dd9015" d="M 151.5,47.5 C 152.091,46.8485 152.757,46.1818 153.5,45.5C 150.5,44.1667 147.5,44.1667 144.5,45.5C 145.243,46.1818 145.909,46.8485 146.5,47.5C 145.5,47.5 144.5,47.5 143.5,47.5C 143.5,46.1667 143.5,44.8333 143.5,43.5C 147.167,43.5 150.833,43.5 154.5,43.5C 154.5,44.8333 154.5,46.1667 154.5,47.5C 153.5,47.5 152.5,47.5 151.5,47.5 Z"/></g>
<g><path style="opacity:1" fill="#dc8f15" d="M 166.5,47.5 C 167.091,46.8485 167.757,46.1818 168.5,45.5C 165.833,44.1667 163.167,44.1667 160.5,45.5C 161.243,46.1818 161.909,46.8485 162.5,47.5C 161.5,47.5 160.5,47.5 159.5,47.5C 159.5,46.1667 159.5,44.8333 159.5,43.5C 162.833,43.5 166.167,43.5 169.5,43.5C 169.5,44.8333 169.5,46.1667 169.5,47.5C 168.5,47.5 167.5,47.5 166.5,47.5 Z"/></g>
<g><path style="opacity:1" fill="#dd9115" d="M 175.5,44.5 C 180.975,43.5111 186.642,43.1778 192.5,43.5C 192.806,46.3854 192.473,49.0521 191.5,51.5C 191.5,49.1667 191.5,46.8333 191.5,44.5C 186.167,44.5 180.833,44.5 175.5,44.5 Z"/></g>
<g><path style="opacity:1" fill="#dc8f14" d="M 206.5,44.5 C 203.753,44.1866 201.086,44.52 198.5,45.5C 199.243,46.1818 199.909,46.8485 200.5,47.5C 199.5,47.5 198.5,47.5 197.5,47.5C 197.5,46.1667 197.5,44.8333 197.5,43.5C 200.713,43.19 203.713,43.5233 206.5,44.5 Z"/></g>
<g><path style="opacity:1" fill="#dc8f14" d="M 214.5,44.5 C 217.287,43.5233 220.287,43.19 223.5,43.5C 223.5,44.8333 223.5,46.1667 223.5,47.5C 222.5,47.5 221.5,47.5 220.5,47.5C 221.091,46.8485 221.757,46.1818 222.5,45.5C 219.914,44.52 217.247,44.1866 214.5,44.5 Z"/></g>
<g><path style="opacity:1" fill="#f1c325" d="M 113.5,51.5 C 113.5,49.8333 113.5,48.1667 113.5,46.5C 109.5,46.5 105.5,46.5 101.5,46.5C 101.216,48.4147 101.549,50.0813 102.5,51.5C 102.33,52.8221 102.663,53.9887 103.5,55C 107.753,57.7097 111.92,60.543 116,63.5C 116.796,67.7548 116.629,71.9215 115.5,76C 110.201,77.1451 104.868,77.4784 99.5,77C 98.8922,75.769 98.5589,74.4357 98.5,73C 97.939,69.5519 99.1057,68.3852 102,69.5C 102.49,70.7932 102.657,72.1266 102.5,73.5C 105.833,73.5 109.167,73.5 112.5,73.5C 112.665,70.4816 112.498,67.4816 112,64.5C 108,61.8333 104,59.1667 100,56.5C 99.501,52.1794 99.3343,47.8461 99.5,43.5C 105.176,43.3339 110.843,43.5006 116.5,44C 117.602,46.4009 117.769,48.9009 117,51.5C 115.708,52.7911 114.542,52.7911 113.5,51.5 Z"/></g>
<g><path style="opacity:1" fill="#f6cf2a" d="M 119.5,44.5 C 126.5,44.5 133.5,44.5 140.5,44.5C 140.5,46.8333 140.5,49.1667 140.5,51.5C 139.5,51.5 138.5,51.5 137.5,51.5C 137.985,46.8415 136.152,45.5081 132,47.5C 131.333,56.1667 131.333,64.8333 132,73.5C 132.925,74.0465 133.758,74.7132 134.5,75.5C 131.5,76.8333 128.5,76.8333 125.5,75.5C 126.242,74.7132 127.075,74.0465 128,73.5C 128.667,64.8333 128.667,56.1667 128,47.5C 123.848,45.5081 122.015,46.8415 122.5,51.5C 121.5,51.5 120.5,51.5 119.5,51.5C 119.5,49.1667 119.5,46.8333 119.5,44.5 Z"/></g>
<g><path style="opacity:1" fill="#f8d42c" d="M 151.5,47.5 C 150.343,55.9901 150.176,64.6567 151,73.5C 155,74.8333 159,74.8333 163,73.5C 163.824,64.6567 163.657,55.9901 162.5,47.5C 161.909,46.8485 161.243,46.1818 160.5,45.5C 163.167,44.1667 165.833,44.1667 168.5,45.5C 167.757,46.1818 167.091,46.8485 166.5,47.5C 165.506,56.9856 165.173,66.6522 165.5,76.5C 159.575,76.8082 153.741,76.4749 148,75.5C 147.83,65.991 147.33,56.6577 146.5,47.5C 145.909,46.8485 145.243,46.1818 144.5,45.5C 147.5,44.1667 150.5,44.1667 153.5,45.5C 152.757,46.1818 152.091,46.8485 151.5,47.5 Z"/></g>
<g><path style="opacity:1" fill="#f2c426" d="M 175.5,44.5 C 180.833,44.5 186.167,44.5 191.5,44.5C 191.5,46.8333 191.5,49.1667 191.5,51.5C 190.811,52.7736 189.977,52.7736 189,51.5C 188.51,50.2068 188.343,48.8734 188.5,47.5C 184.833,47.5 181.167,47.5 177.5,47.5C 177.523,49.9267 178.023,52.26 179,54.5C 183.682,57.0067 188.015,60.0067 192,63.5C 192.167,65.5 192.333,67.5 192.5,69.5C 192.41,71.9637 191.743,74.1303 190.5,76C 185.201,77.1451 179.868,77.4784 174.5,77C 173.892,75.769 173.559,74.4357 173.5,73C 172.939,69.5519 174.106,68.3852 177,69.5C 177.49,70.7932 177.657,72.1266 177.5,73.5C 181.167,73.5 184.833,73.5 188.5,73.5C 188.664,70.8127 188.497,68.146 188,65.5C 184.098,62.1324 179.931,59.1324 175.5,56.5C 174.302,52.4885 174.302,48.4885 175.5,44.5 Z"/></g>
<g><path style="opacity:1" fill="#f4cc2a" d="M 206.5,44.5 C 205.627,48.7685 205.294,53.1018 205.5,57.5C 208.962,58.4816 212.629,58.815 216.5,58.5C 216.806,55.6146 216.473,52.9479 215.5,50.5C 215.483,48.4352 215.15,46.4352 214.5,44.5C 217.247,44.1866 219.914,44.52 222.5,45.5C 221.757,46.1818 221.091,46.8485 220.5,47.5C 219.167,56.1667 219.167,64.8333 220.5,73.5C 221.091,74.1515 221.757,74.8182 222.5,75.5C 219.914,76.48 217.247,76.8134 214.5,76.5C 215.342,71.213 215.676,65.8797 215.5,60.5C 212.167,60.5 208.833,60.5 205.5,60.5C 205.324,65.8797 205.658,71.213 206.5,76.5C 203.753,76.8134 201.086,76.48 198.5,75.5C 199.243,74.8182 199.909,74.1515 200.5,73.5C 201.833,64.8333 201.833,56.1667 200.5,47.5C 199.909,46.8485 199.243,46.1818 198.5,45.5C 201.086,44.52 203.753,44.1866 206.5,44.5 Z"/></g>
<g><path style="opacity:1" fill="#f5cf2a" d="M 229.5,44.5 C 235.093,44.1934 240.593,44.5268 246,45.5C 246.667,55.1667 246.667,64.8333 246,74.5C 245.5,75 245,75.5 244.5,76C 239.833,76.6667 235.167,76.6667 230.5,76C 230,75.5 229.5,75 229,74.5C 228.193,64.4229 228.36,54.4229 229.5,44.5 Z"/></g>
<g><path style="opacity:1" fill="#f1c426" d="M 251.5,44.5 C 258.422,44.1878 265.256,44.5212 272,45.5C 272.667,49.1667 272.667,52.8333 272,56.5C 267.828,58.9186 263.828,61.5852 260,64.5C 258.917,68.7113 259.75,72.378 262.5,75.5C 262.291,76.086 261.957,76.586 261.5,77C 258.5,77.6667 255.5,77.6667 252.5,77C 251.179,75.4555 251.512,74.2888 253.5,73.5C 254.833,64.8333 254.833,56.1667 253.5,47.5C 252.081,46.9953 251.415,45.9953 251.5,44.5 Z"/></g>
<g><path style="opacity:1" fill="#df9716" d="M 113.5,51.5 C 112.566,50.4324 112.232,49.099 112.5,47.5C 109.167,47.5 105.833,47.5 102.5,47.5C 102.5,48.8333 102.5,50.1667 102.5,51.5C 101.549,50.0813 101.216,48.4147 101.5,46.5C 105.5,46.5 109.5,46.5 113.5,46.5C 113.5,48.1667 113.5,49.8333 113.5,51.5 Z"/></g>
<g><path style="opacity:1" fill="#df9717" d="M 269.5,51.5 C 269.5,50.1667 269.5,48.8333 269.5,47.5C 266.167,47.5 262.833,47.5 259.5,47.5C 259.5,50.1667 259.5,52.8333 259.5,55.5C 258.523,52.7131 258.19,49.7131 258.5,46.5C 262.5,46.5 266.5,46.5 270.5,46.5C 270.784,48.4147 270.451,50.0813 269.5,51.5 Z"/></g>
<g><path style="opacity:1" fill="#c96102" d="M 44.5,47.5 C 46.1667,47.5 47.8333,47.5 49.5,47.5C 49.5,49.8333 49.5,52.1667 49.5,54.5C 47.8333,54.5 46.1667,54.5 44.5,54.5C 44.5,52.1667 44.5,49.8333 44.5,47.5 Z"/></g>
<g><path style="opacity:1" fill="#c96102" d="M 73.5,47.5 C 75.1667,47.5 76.8333,47.5 78.5,47.5C 78.5,49.8333 78.5,52.1667 78.5,54.5C 76.8333,54.5 75.1667,54.5 73.5,54.5C 73.5,52.1667 73.5,49.8333 73.5,47.5 Z"/></g>
<g><path style="opacity:1" fill="#ca6304" d="M 232.5,46.5 C 236.106,46.2108 239.606,46.5442 243,47.5C 243.816,56.4117 243.65,65.245 242.5,74C 238.909,74.7886 235.409,74.6219 232,73.5C 231.196,64.4221 231.363,55.4221 232.5,46.5 Z"/></g>
<g><path style="opacity:1" fill="#c75c02" d="M 269.5,51.5 C 269.703,53.3904 269.037,54.8904 267.5,56C 264.89,57.4814 262.223,58.6481 259.5,59.5C 259.5,58.1667 259.5,56.8333 259.5,55.5C 259.5,52.8333 259.5,50.1667 259.5,47.5C 262.833,47.5 266.167,47.5 269.5,47.5C 269.5,48.8333 269.5,50.1667 269.5,51.5 Z"/></g>
<g><path style="opacity:1" fill="#e3a21a" d="M 35.5,47.5 C 36.9187,46.5489 38.5853,46.2155 40.5,46.5C 41.2631,49.1411 41.4298,51.8078 41,54.5C 39.2041,55.767 37.3707,55.767 35.5,54.5C 34.2031,52.0268 34.2031,49.6934 35.5,47.5 Z"/></g>
<g><path style="opacity:1" fill="#c35500" d="M 35.5,47.5 C 36.8333,47.5 38.1667,47.5 39.5,47.5C 39.5,49.5 39.5,51.5 39.5,53.5C 38.1667,53.5 36.8333,53.5 35.5,53.5C 35.5,51.5 35.5,49.5 35.5,47.5 Z"/></g>
<g><path style="opacity:1" fill="#e3a21a" d="M 54.5,47.5 C 55.9187,46.5489 57.5853,46.2155 59.5,46.5C 60.2631,49.1411 60.4298,51.8078 60,54.5C 58.2041,55.767 56.3707,55.767 54.5,54.5C 53.2031,52.0268 53.2031,49.6934 54.5,47.5 Z"/></g>
<g><path style="opacity:1" fill="#c35500" d="M 54.5,47.5 C 55.8333,47.5 57.1667,47.5 58.5,47.5C 58.5,49.5 58.5,51.5 58.5,53.5C 57.1667,53.5 55.8333,53.5 54.5,53.5C 54.5,51.5 54.5,49.5 54.5,47.5 Z"/></g>
<g><path style="opacity:1" fill="#db8f14" d="M 63.5,46.5 C 65.5,46.5 67.5,46.5 69.5,46.5C 69.5,49.1667 69.5,51.8333 69.5,54.5C 67.5,54.5 65.5,54.5 63.5,54.5C 63.5,51.8333 63.5,49.1667 63.5,46.5 Z"/></g>
<g><path style="opacity:1" fill="#c35500" d="M 64.5,47.5 C 65.8333,47.5 67.1667,47.5 68.5,47.5C 68.5,49.5 68.5,51.5 68.5,53.5C 67.1667,53.5 65.8333,53.5 64.5,53.5C 64.5,51.5 64.5,49.5 64.5,47.5 Z"/></g>
<g><path style="opacity:1" fill="#df9617" d="M 215.5,50.5 C 216.473,52.9479 216.806,55.6146 216.5,58.5C 212.629,58.815 208.962,58.4816 205.5,57.5C 208.833,57.5 212.167,57.5 215.5,57.5C 215.5,55.1667 215.5,52.8333 215.5,50.5 Z"/></g>
<g><path style="opacity:1" fill="#dd9115" d="M 35.5,58.5 C 35.5,65.1667 35.5,71.8333 35.5,78.5C 40.1667,78.5 44.8333,78.5 49.5,78.5C 44.6946,79.4872 39.6946,79.8205 34.5,79.5C 34.1755,72.3134 34.5088,65.3134 35.5,58.5 Z"/></g>
<g><path style="opacity:1" fill="#c45600" d="M 35.5,58.5 C 40.1667,58.5 44.8333,58.5 49.5,58.5C 49.5,65.1667 49.5,71.8333 49.5,78.5C 44.8333,78.5 40.1667,78.5 35.5,78.5C 35.5,71.8333 35.5,65.1667 35.5,58.5 Z"/></g>
<g><path style="opacity:1" fill="#db8f13" d="M 54.5,78.5 C 53.5093,72.021 53.176,65.3543 53.5,58.5C 61.8304,57.857 70.1637,57.6904 78.5,58C 79.271,65.093 79.271,72.2596 78.5,79.5C 70.3159,79.8257 62.3159,79.4924 54.5,78.5 Z"/></g>
<g><path style="opacity:1" fill="#c35500" d="M 54.5,78.5 C 54.5,72.1667 54.5,65.8333 54.5,59.5C 62.1667,59.5 69.8333,59.5 77.5,59.5C 77.5,65.8333 77.5,72.1667 77.5,78.5C 69.8333,78.5 62.1667,78.5 54.5,78.5 Z"/></g>
<g><path style="opacity:1" fill="#dc9015" d="M 200.5,73.5 C 199.909,74.1515 199.243,74.8182 198.5,75.5C 201.086,76.48 203.753,76.8134 206.5,76.5C 203.713,77.4767 200.713,77.81 197.5,77.5C 197.5,76.1667 197.5,74.8333 197.5,73.5C 198.5,73.5 199.5,73.5 200.5,73.5 Z"/></g>
<g><path style="opacity:1" fill="#dc9015" d="M 220.5,73.5 C 221.5,73.5 222.5,73.5 223.5,73.5C 223.5,74.8333 223.5,76.1667 223.5,77.5C 220.287,77.81 217.287,77.4767 214.5,76.5C 217.247,76.8134 219.914,76.48 222.5,75.5C 221.757,74.8182 221.091,74.1515 220.5,73.5 Z"/></g>
<g><path style="opacity:1" fill="#e19c18" d="M 83.5,78.5 C 84.3689,80.984 85.0356,83.6507 85.5,86.5C 85.3918,87.4419 85.0585,88.2753 84.5,89C 65.9779,89.749 47.6446,89.249 29.5,87.5C 47.5,87.5 65.5,87.5 83.5,87.5C 83.5,84.5 83.5,81.5 83.5,78.5 Z"/></g>
</svg>
